<svg width="1109" height="1109" viewBox="0 0 1109 1109" fill="none" xmlns="http://www.w3.org/2000/svg">
<circle cx="554.5" cy="554.5" r="554" stroke="#C4C4C4"/>
<circle cx="554.668" cy="554.668" r="495.855" stroke="#C4C4C4"/>
<circle cx="554.202" cy="554.202" r="460.402" stroke="#C4C4C4"/>
<circle cx="561.922" cy="561.922" r="397.086" stroke="#C4C4C4"/>
<circle cx="554.5" cy="554.5" r="423.592" stroke="#C4C4C4"/>
<circle cx="554.389" cy="554.389" r="297.313" stroke="#C4C4C4"/>
<circle cx="561.922" cy="561.922" r="354.677" stroke="#C4C4C4"/>
<circle cx="554.24" cy="554.24" r="250.514" stroke="#C4C4C4"/>
<circle cx="554.046" cy="554.046" r="211.546" stroke="#C4C4C4"/>
<circle cx="554" cy="554" r="176.5" stroke="#C4C4C4"/>
<circle cx="554" cy="554" r="129.5" stroke="#C4C4C4"/>
<circle cx="674" cy="734" r="10" fill="#FFDE7A"/>
<circle cx="260" cy="604" r="10" fill="#FFDE7A"/>
<circle cx="575" cy="852" r="10" fill="#FFDE7A"/>
<circle cx="322" cy="908" r="10" fill="#FFDE7A"/>
<circle cx="632" cy="1005" r="10" fill="#FFDE7A"/>
<circle cx="523" cy="677" r="10" fill="#FFDE7A"/>
<path d="M457.29 676.29C458.69 676.29 459.71 676.565 460.35 677.115C460.99 677.665 461.31 678.44 461.31 679.44C461.31 680.03 461.175 680.585 460.905 681.105C460.645 681.615 460.2 682.03 459.57 682.35C458.95 682.67 458.105 682.83 457.035 682.83H455.805V687H454.455V676.29H457.29ZM457.17 677.445H455.805V681.675H456.885C457.905 681.675 458.665 681.51 459.165 681.18C459.665 680.85 459.915 680.29 459.915 679.5C459.915 678.81 459.695 678.295 459.255 677.955C458.815 677.615 458.12 677.445 457.17 677.445ZM470.41 687L469.12 683.685H464.875L463.6 687H462.235L466.42 676.245H467.635L471.805 687H470.41ZM467.515 679.245C467.485 679.165 467.435 679.02 467.365 678.81C467.295 678.6 467.225 678.385 467.155 678.165C467.095 677.935 467.045 677.76 467.005 677.64C466.935 677.95 466.855 678.255 466.765 678.555C466.675 678.845 466.6 679.075 466.54 679.245L465.325 682.485H468.715L467.515 679.245ZM481.385 676.29V685.8H482.75V689.82H481.46V687H474.095V689.82H472.805V685.8H473.63C473.99 685.18 474.33 684.485 474.65 683.715C474.98 682.945 475.27 682.14 475.52 681.3C475.77 680.45 475.975 679.6 476.135 678.75C476.295 677.9 476.395 677.08 476.435 676.29H481.385ZM477.62 677.505C477.58 678.085 477.48 678.74 477.32 679.47C477.17 680.2 476.975 680.95 476.735 681.72C476.505 682.48 476.245 683.215 475.955 683.925C475.675 684.635 475.375 685.26 475.055 685.8H480.05V677.505H477.62ZM485.456 676.29H486.716V682.17C486.716 682.5 486.711 682.87 486.701 683.28C486.691 683.69 486.676 684.065 486.656 684.405C486.646 684.745 486.631 684.995 486.611 685.155H486.671L492.566 676.29H494.066V687H492.806V681.18C492.806 680.81 492.811 680.415 492.821 679.995C492.841 679.575 492.861 679.19 492.881 678.84C492.901 678.49 492.916 678.24 492.926 678.09H492.866L486.956 687H485.456V676.29ZM507.2 681.63C507.2 682.74 507.01 683.71 506.63 684.54C506.26 685.36 505.71 686 504.98 686.46C504.25 686.92 503.345 687.15 502.265 687.15C501.155 687.15 500.23 686.92 499.49 686.46C498.76 686 498.215 685.355 497.855 684.525C497.495 683.695 497.315 682.725 497.315 681.615C497.315 680.515 497.495 679.555 497.855 678.735C498.215 677.915 498.76 677.275 499.49 676.815C500.23 676.355 501.16 676.125 502.28 676.125C503.35 676.125 504.25 676.355 504.98 676.815C505.71 677.265 506.26 677.905 506.63 678.735C507.01 679.555 507.2 680.52 507.2 681.63ZM498.74 681.63C498.74 682.98 499.025 684.045 499.595 684.825C500.165 685.595 501.055 685.98 502.265 685.98C503.485 685.98 504.375 685.595 504.935 684.825C505.495 684.045 505.775 682.98 505.775 681.63C505.775 680.28 505.495 679.225 504.935 678.465C504.375 677.695 503.49 677.31 502.28 677.31C501.07 677.31 500.175 677.695 499.595 678.465C499.025 679.225 498.74 680.28 498.74 681.63Z" fill="black"/>
<path d="M494.29 848.29C495.69 848.29 496.71 848.565 497.35 849.115C497.99 849.665 498.31 850.44 498.31 851.44C498.31 852.03 498.175 852.585 497.905 853.105C497.645 853.615 497.2 854.03 496.57 854.35C495.95 854.67 495.105 854.83 494.035 854.83H492.805V859H491.455V848.29H494.29ZM494.17 849.445H492.805V853.675H493.885C494.905 853.675 495.665 853.51 496.165 853.18C496.665 852.85 496.915 852.29 496.915 851.5C496.915 850.81 496.695 850.295 496.255 849.955C495.815 849.615 495.12 849.445 494.17 849.445ZM507.41 859L506.12 855.685H501.875L500.6 859H499.235L503.42 848.245H504.635L508.805 859H507.41ZM504.515 851.245C504.485 851.165 504.435 851.02 504.365 850.81C504.295 850.6 504.225 850.385 504.155 850.165C504.095 849.935 504.045 849.76 504.005 849.64C503.935 849.95 503.855 850.255 503.765 850.555C503.675 850.845 503.6 851.075 503.54 851.245L502.325 854.485H505.715L504.515 851.245ZM518.385 848.29V857.8H519.75V861.82H518.46V859H511.095V861.82H509.805V857.8H510.63C510.99 857.18 511.33 856.485 511.65 855.715C511.98 854.945 512.27 854.14 512.52 853.3C512.77 852.45 512.975 851.6 513.135 850.75C513.295 849.9 513.395 849.08 513.435 848.29H518.385ZM514.62 849.505C514.58 850.085 514.48 850.74 514.32 851.47C514.17 852.2 513.975 852.95 513.735 853.72C513.505 854.48 513.245 855.215 512.955 855.925C512.675 856.635 512.375 857.26 512.055 857.8H517.05V849.505H514.62ZM522.456 848.29H523.716V854.17C523.716 854.5 523.711 854.87 523.701 855.28C523.691 855.69 523.676 856.065 523.656 856.405C523.646 856.745 523.631 856.995 523.611 857.155H523.671L529.566 848.29H531.066V859H529.806V853.18C529.806 852.81 529.811 852.415 529.821 851.995C529.841 851.575 529.861 851.19 529.881 850.84C529.901 850.49 529.916 850.24 529.926 850.09H529.866L523.956 859H522.456V848.29ZM544.2 853.63C544.2 854.74 544.01 855.71 543.63 856.54C543.26 857.36 542.71 858 541.98 858.46C541.25 858.92 540.345 859.15 539.265 859.15C538.155 859.15 537.23 858.92 536.49 858.46C535.76 858 535.215 857.355 534.855 856.525C534.495 855.695 534.315 854.725 534.315 853.615C534.315 852.515 534.495 851.555 534.855 850.735C535.215 849.915 535.76 849.275 536.49 848.815C537.23 848.355 538.16 848.125 539.28 848.125C540.35 848.125 541.25 848.355 541.98 848.815C542.71 849.265 543.26 849.905 543.63 850.735C544.01 851.555 544.2 852.52 544.2 853.63ZM535.74 853.63C535.74 854.98 536.025 856.045 536.595 856.825C537.165 857.595 538.055 857.98 539.265 857.98C540.485 857.98 541.375 857.595 541.935 856.825C542.495 856.045 542.775 854.98 542.775 853.63C542.775 852.28 542.495 851.225 541.935 850.465C541.375 849.695 540.49 849.31 539.28 849.31C538.07 849.31 537.175 849.695 536.595 850.465C536.025 851.225 535.74 852.28 535.74 853.63Z" fill="black"/>
<path d="M232.845 609H231.495V599.475H228.15V598.29H236.175V599.475H232.845V609ZM241.75 598.29C243.09 598.29 244.1 598.49 244.78 598.89C245.47 599.28 245.815 599.965 245.815 600.945C245.815 601.575 245.64 602.1 245.29 602.52C244.94 602.93 244.435 603.195 243.775 603.315V603.39C244.225 603.46 244.63 603.59 244.99 603.78C245.36 603.97 245.65 604.24 245.86 604.59C246.07 604.94 246.175 605.395 246.175 605.955C246.175 606.925 245.84 607.675 245.17 608.205C244.51 608.735 243.605 609 242.455 609H238.69V598.29H241.75ZM242.02 602.85C242.94 602.85 243.57 602.705 243.91 602.415C244.25 602.115 244.42 601.675 244.42 601.095C244.42 600.505 244.21 600.085 243.79 599.835C243.38 599.575 242.72 599.445 241.81 599.445H240.04V602.85H242.02ZM240.04 603.975V607.86H242.2C243.15 607.86 243.81 607.675 244.18 607.305C244.55 606.935 244.735 606.45 244.735 605.85C244.735 605.29 244.54 604.84 244.15 604.5C243.77 604.15 243.085 603.975 242.095 603.975H240.04Z" fill="black"/>
<path d="M643.845 744H642.495V734.475H639.15V733.29H647.175V734.475H643.845V744ZM652.75 733.29C654.09 733.29 655.1 733.49 655.78 733.89C656.47 734.28 656.815 734.965 656.815 735.945C656.815 736.575 656.64 737.1 656.29 737.52C655.94 737.93 655.435 738.195 654.775 738.315V738.39C655.225 738.46 655.63 738.59 655.99 738.78C656.36 738.97 656.65 739.24 656.86 739.59C657.07 739.94 657.175 740.395 657.175 740.955C657.175 741.925 656.84 742.675 656.17 743.205C655.51 743.735 654.605 744 653.455 744H649.69V733.29H652.75ZM653.02 737.85C653.94 737.85 654.57 737.705 654.91 737.415C655.25 737.115 655.42 736.675 655.42 736.095C655.42 735.505 655.21 735.085 654.79 734.835C654.38 734.575 653.72 734.445 652.81 734.445H651.04V737.85H653.02ZM651.04 738.975V742.86H653.2C654.15 742.86 654.81 742.675 655.18 742.305C655.55 741.935 655.735 741.45 655.735 740.85C655.735 740.29 655.54 739.84 655.15 739.5C654.77 739.15 654.085 738.975 653.095 738.975H651.04Z" fill="black"/>
</svg>
