<svg width="1775" height="1234" viewBox="0 0 1775 1234" fill="none" xmlns="http://www.w3.org/2000/svg">
<path d="M20.2461 178.335C98.639 116.883 187.137 58.1946 274.831 30.579C312.264 18.7912 359.01 15.5016 396.59 28.8475C480.882 58.783 425.808 226.815 406.275 293.77C375.624 398.836 353.41 541.055 383.94 650.462C393.465 684.599 409.818 720.291 431.575 740.213C464.231 770.112 504.032 739.966 533.37 715.394C607.928 652.95 679.849 586.209 760.678 541.954C816.229 511.54 890.106 487.504 949.246 511.941C1037.71 548.494 921.501 724.13 899.831 774.555C859.788 867.731 801.051 1103.35 892.913 1172.8C953.589 1218.68 1027.26 1215.07 1093.54 1210.9C1166.55 1206.3 1261.02 1159.52 1321.25 1095.7C1365.35 1048.96 1410.51 988.669 1450.75 934.695C1471.88 906.342 1553.64 799.93 1576.75 774.555C1619.37 687.103 1732.25 712.319 1754.25 692.695" stroke="#FFDE7A" stroke-width="40" stroke-linecap="round" stroke-linejoin="round"/>
<path d="M205.246 819.195L306.246 153.195L1334.25 9.19507L1226.25 913.195L205.246 819.195Z" fill="#F4F4F4" stroke="#F4F3F8"/>
</svg>
