<svg width="162" height="49" viewBox="0 0 162 49" fill="none" xmlns="http://www.w3.org/2000/svg">
<path d="M0 5.81037V0.494141H2.76301C3.27199 0.494141 3.63554 0.494144 3.85367 0.547306C4.21723 0.600468 4.50807 0.653631 4.7262 0.813118C4.94433 0.919442 5.16247 1.13209 5.30789 1.34474C5.45331 1.55739 5.52602 1.8232 5.52602 2.08901C5.52602 2.56747 5.30789 2.93961 4.94433 3.25859C4.58078 3.57756 3.85367 3.73704 2.83572 3.73704H0.945242V5.9167H0V5.81037ZM0.945242 3.04593H2.83572C3.49012 3.04593 3.92638 2.93961 4.14452 2.78012C4.36265 2.62063 4.50807 2.35482 4.50807 2.08901C4.50807 1.87636 4.43536 1.66372 4.28994 1.50423C4.14451 1.34474 3.92638 1.23841 3.70825 1.18525C3.56283 1.13209 3.27198 1.13209 2.83572 1.13209H0.945242V3.04593Z" fill="#5D5D5D"/>
<path d="M8.7981 5.81036V0.494141H14.0333V1.13209H9.74334V2.78012H13.7424V3.41806H9.74334V5.22558H14.2514V5.86353H8.7981V5.81036Z" fill="#5D5D5D"/>
<path d="M17.6687 0.494564H18.6139V2.83371C19.0502 2.83371 19.341 2.78055 19.5592 2.62106C19.7046 2.51473 19.9954 2.19576 20.2136 1.7173C20.4317 1.34516 20.5771 1.13252 20.7226 0.97303C20.868 0.813543 21.0134 0.70722 21.3042 0.600895C21.5224 0.49457 21.8132 0.441406 22.1041 0.441406C22.4676 0.441406 22.6858 0.441406 22.6858 0.441406V1.02619C22.6858 1.02619 22.613 1.02619 22.4676 1.02619C22.3949 1.02619 22.3222 1.02619 22.2495 1.02619C21.9586 1.02619 21.7405 1.07935 21.5951 1.18568C21.4497 1.292 21.3042 1.50465 21.0861 1.87679C20.868 2.30209 20.6498 2.62107 20.4317 2.72739C20.2863 2.83372 20.0682 2.94004 19.85 2.9932C20.2863 3.09953 20.7953 3.41849 21.2315 3.95012L22.7585 5.70448H21.5951L20.359 4.2691C19.9954 3.8438 19.7773 3.57799 19.4865 3.47166C19.2683 3.31217 18.9775 3.25901 18.6139 3.25901V5.75764H17.6687V0.494564V0.494564Z" fill="#5D5D5D"/>
<path d="M26.1031 0.494141H30.6839V5.81037H29.7386V1.13209H27.121V3.89653C27.121 4.42816 27.121 4.85346 27.0483 5.11927C26.9756 5.38508 26.8302 5.59772 26.612 5.70405C26.3939 5.86354 26.1031 5.9167 25.7395 5.9167C25.5214 5.9167 25.3033 5.86353 24.9397 5.81037L25.0851 5.17243C25.2305 5.22559 25.376 5.22559 25.5214 5.22559C25.7395 5.22559 25.8849 5.17243 26.0304 5.0661C26.1758 4.95978 26.1758 4.6408 26.1758 4.2155V0.494141H26.1031Z" fill="#5D5D5D"/>
<path d="M33.5198 5.81038L36.2828 0.494141H37.3007L40.2819 5.81038H39.1912L38.3187 4.21551H35.2648L34.465 5.81038H33.5198ZM35.6284 3.63072H38.1006L37.3735 2.14218C37.1553 1.71688 36.9372 1.34474 36.8645 1.02576C36.7918 1.34474 36.6463 1.71688 36.5009 2.03585L35.6284 3.63072Z" fill="#5D5D5D"/>
<path d="M43.1174 5.81038V0.494141H44.5716L46.3167 4.26867C46.4621 4.64081 46.6076 4.90662 46.6803 5.06611C46.753 4.85346 46.8984 4.58764 47.0438 4.21551L48.7889 0.494141H50.0977V5.81038H49.1524V1.34474L47.0438 5.81038H46.1713L44.0627 1.29158V5.81038H43.1174Z" fill="#5D5D5D"/>
<path d="M53.6604 5.81038V0.494141H54.6056V2.6738H58.3866V0.494141H59.3318V5.81038H58.3866V3.31175H54.6056V5.81038H53.6604Z" fill="#5D5D5D"/>
<path d="M62.7493 3.20529C62.7493 2.30154 63.0401 1.61043 63.6945 1.13197C64.3489 0.653511 65.1487 0.387695 66.2394 0.387695C66.8938 0.387695 67.5482 0.494018 68.0572 0.759829C68.5661 1.02564 69.0024 1.34461 69.2932 1.71675C69.5841 2.14205 69.7295 2.62051 69.7295 3.15213C69.7295 3.68375 69.5841 4.16222 69.2932 4.58751C69.0024 5.01281 68.5661 5.33178 68.0572 5.54443C67.4755 5.75708 66.8938 5.8634 66.3121 5.8634C65.6577 5.8634 65.0033 5.75708 64.4943 5.49127C63.9854 5.22546 63.5491 4.90648 63.2583 4.48118C62.9674 4.05589 62.7493 3.68375 62.7493 3.20529ZM63.7672 3.20529C63.7672 3.84324 63.9854 4.37486 64.4943 4.74699C64.9306 5.11913 65.585 5.27862 66.2394 5.27862C66.9665 5.27862 67.5482 5.06597 68.0572 4.69384C68.5661 4.3217 68.7843 3.79008 68.7843 3.09897C68.7843 2.67367 68.7116 2.30153 68.4934 1.98256C68.2753 1.66359 67.9845 1.39778 67.6209 1.23829C67.2573 1.07881 66.8211 0.972483 66.3121 0.972483C65.6577 0.972483 65.076 1.13197 64.567 1.5041C63.9854 1.87624 63.7672 2.40786 63.7672 3.20529Z" fill="#5D5D5D"/>
<path d="M73.0017 5.81036V0.494141H78.2369V1.13209H73.947V2.78012H77.9461V3.41806H73.947V5.22558H78.455V5.86353H73.0017V5.81036Z" fill="#5D5D5D"/>
<path d="M85.8716 5.81038L88.6346 0.494141H89.6525L92.6337 5.81038H91.543L90.6705 4.21551H87.6167L86.8168 5.81038H85.8716ZM87.9802 3.63072H90.4524L89.7253 2.14218C89.5071 1.71688 89.289 1.34474 89.2163 1.02576C89.1436 1.34474 88.9982 1.71688 88.8527 2.03585L87.9802 3.63072Z" fill="#5D5D5D"/>
<path d="M95.542 0.494141H100.268V1.1321H96.4872V5.81038H95.542V0.494141Z" fill="#5D5D5D"/>
<path d="M103.104 5.81036V0.494141H108.339V1.13209H104.049V2.78012H108.048V3.41806H104.049V5.22558H108.557V5.86353H103.104V5.81036Z" fill="#5D5D5D"/>
<path d="M111.902 5.81038V0.494141H112.847V2.6738H116.628V0.494141H117.573V5.81038H116.628V3.31175H112.847V5.81038H111.902Z" fill="#5D5D5D"/>
<path d="M123.099 5.81038V1.1321H120.7V0.494141H126.444V1.1321H124.045V5.81038H123.099Z" fill="#5D5D5D"/>
<path d="M134.733 3.94957L135.678 4.10905C135.46 4.69384 135.097 5.11914 134.588 5.43811C134.079 5.75708 133.424 5.91658 132.697 5.91658C131.897 5.91658 131.243 5.81025 130.807 5.54443C130.298 5.33178 129.934 4.95965 129.716 4.53435C129.498 4.10906 129.353 3.6306 129.353 3.09897C129.353 2.56735 129.498 2.03573 129.789 1.66359C130.08 1.2383 130.516 0.919321 131.025 0.706672C131.534 0.494023 132.116 0.387695 132.77 0.387695C133.497 0.387695 134.079 0.547184 134.588 0.812995C135.097 1.07881 135.46 1.45094 135.606 1.98256L134.66 2.14205C134.515 1.76992 134.224 1.45094 133.933 1.29145C133.642 1.13197 133.206 1.02564 132.697 1.02564C132.116 1.02564 131.679 1.13197 131.316 1.34462C130.952 1.55727 130.661 1.82308 130.516 2.14205C130.37 2.46103 130.298 2.83316 130.298 3.15213C130.298 3.63059 130.37 4.00273 130.589 4.32171C130.734 4.64068 131.025 4.90649 131.461 5.06598C131.897 5.22546 132.261 5.33179 132.697 5.33179C133.206 5.33179 133.715 5.22546 134.079 5.01281C134.442 4.80016 134.588 4.37486 134.733 3.94957Z" fill="#5D5D5D"/>
<path d="M140.405 5.81038V1.1321H138.005V0.494141H143.749V1.1321H141.35V5.81038H140.405Z" fill="#5D5D5D"/>
<path d="M146.803 5.81038V0.494141H149.566C150.148 0.494141 150.584 0.547305 150.875 0.653629C151.238 0.759954 151.456 0.919446 151.675 1.1321C151.893 1.34474 151.965 1.61055 151.965 1.8232C151.965 2.03585 151.893 2.2485 151.747 2.46115C151.602 2.6738 151.311 2.83329 150.948 2.93961C151.384 3.04594 151.747 3.20542 151.965 3.41807C152.184 3.63072 152.329 3.89653 152.329 4.21551C152.329 4.48132 152.256 4.69397 152.111 4.90662C151.965 5.11927 151.82 5.27876 151.602 5.38508C151.384 5.49141 151.093 5.59773 150.802 5.65089C150.511 5.70406 150.075 5.75722 149.639 5.75722H146.803V5.81038ZM147.748 2.72697H149.348C149.784 2.72697 150.075 2.72696 150.293 2.6738C150.511 2.62064 150.729 2.51431 150.875 2.40799C151.02 2.30166 151.093 2.14218 151.093 1.92953C151.093 1.77004 151.02 1.61055 150.948 1.45106C150.802 1.29158 150.657 1.23842 150.439 1.18525C150.22 1.13209 149.857 1.1321 149.348 1.1321H147.894V2.72697H147.748ZM147.748 5.17243H149.566C149.857 5.17243 150.075 5.17243 150.22 5.17243C150.439 5.11927 150.657 5.11926 150.802 5.01294C150.947 4.90662 151.093 4.85346 151.166 4.69397C151.238 4.58765 151.311 4.42816 151.311 4.26867C151.311 4.05602 151.238 3.89653 151.093 3.73705C150.947 3.57756 150.729 3.47123 150.511 3.41807C150.293 3.36491 149.93 3.31175 149.421 3.31175H147.748V5.17243V5.17243Z" fill="#5D5D5D"/>
<path d="M155.02 3.20529C155.02 2.30154 155.311 1.61043 155.965 1.13197C156.619 0.653511 157.419 0.387695 158.51 0.387695C159.164 0.387695 159.819 0.494018 160.328 0.759829C160.837 1.02564 161.273 1.34461 161.564 1.71675C161.855 2.14205 162 2.62051 162 3.15213C162 3.68375 161.855 4.16222 161.564 4.58751C161.273 5.01281 160.837 5.33178 160.328 5.54443C159.746 5.75708 159.164 5.8634 158.583 5.8634C157.928 5.8634 157.274 5.75708 156.765 5.49127C156.256 5.22546 155.82 4.90648 155.529 4.48118C155.238 4.05589 155.02 3.68375 155.02 3.20529ZM156.038 3.20529C156.038 3.84324 156.256 4.37486 156.765 4.74699C157.201 5.11913 157.856 5.27862 158.51 5.27862C159.237 5.27862 159.819 5.06597 160.328 4.69384C160.837 4.3217 161.055 3.79008 161.055 3.09897C161.055 2.67367 160.982 2.30153 160.764 1.98256C160.546 1.66359 160.255 1.39778 159.891 1.23829C159.528 1.07881 159.092 0.972483 158.583 0.972483C157.928 0.972483 157.347 1.13197 156.838 1.5041C156.256 1.87624 156.038 2.40786 156.038 3.20529Z" fill="#5D5D5D"/>
<path fill-rule="evenodd" clip-rule="evenodd" d="M15.9964 32.232H23.4856L23.4129 32.551L23.3402 32.8168L23.2675 33.0826L23.122 33.3484L22.9766 33.6143L22.8312 33.8801L22.6858 34.0927L22.5404 34.3054L22.3222 34.518L22.1041 34.7307L21.886 34.9433L21.6678 35.1028L21.4497 35.2623L21.2316 35.4218L20.9407 35.5813L20.6499 35.7408L20.359 35.8471L20.0682 35.9534L19.7773 36.0597L19.4865 36.1661L19.1957 36.2724L18.9048 36.3787L18.5413 36.4319L18.1777 36.485L17.8141 36.5382L17.4506 36.5914L17.087 36.6445L16.7235 36.6977H16.3599H15.9964H15.6328H15.2693H14.7603H14.2513L13.8151 36.6445L13.3788 36.5914L12.9425 36.5382L12.5063 36.485L12.07 36.3787L11.7064 36.2724L11.3429 36.1661L10.9793 36.0597L10.6158 35.9534L10.2522 35.7939L9.96138 35.6344L9.67054 35.4749L9.3797 35.3155L9.08885 35.156L8.79801 34.9433L8.50717 34.7307L8.28903 34.518L8.0709 34.3054L7.85277 34.0927L7.63464 33.8801L7.41651 33.6674L7.27108 33.4548L7.12566 33.2421L6.98024 33.0295L6.83482 32.8168L6.6894 32.551L6.54397 32.2852L6.47126 32.0194L6.39855 31.7536L6.32584 31.4878L6.25313 31.222L6.18042 30.9561L6.10771 30.6903L6.035 30.4245V30.1587V29.8929V29.6271V29.3613V28.9891V28.617L6.10771 28.2449L6.18042 27.8727L6.25313 27.5006L6.39855 27.1285L6.54397 26.7563L6.6894 26.4374L6.83482 26.1184L7.05295 25.7994L7.27108 25.4804L7.48922 25.1615L7.70734 24.8425L7.99819 24.5767L8.28903 24.3109L8.57988 24.0451L8.87072 23.7792L9.23428 23.5666L9.59783 23.3539L9.96138 23.1413L10.3249 22.9286L10.6885 22.7692L11.1248 22.6097L11.561 22.4502L11.9973 22.2907L12.4335 22.1844L12.8698 22.078L13.3788 21.9717L13.8878 21.9186L14.3967 21.8654L14.9057 21.8122H15.4147H15.7782H16.1418H16.5054L16.7962 21.8654L17.087 21.9186L17.3779 21.9717L17.6687 22.0249L17.9596 22.078L18.2504 22.1312L18.5413 22.1844L18.8321 22.2375L19.0502 22.2907L19.2684 22.3439L19.4865 22.4502L19.7046 22.5565L19.9228 22.6628L20.359 22.8755L20.7226 23.0881L21.0861 23.3008L21.377 23.5134L21.6678 23.7261L21.9587 23.9387L22.1768 24.1514L22.3949 24.364L22.5404 24.5235L22.6858 24.683L22.8312 24.8425L22.9039 24.9488L27.7755 23.035L27.7028 22.9286L27.6301 22.8223L27.5574 22.716L27.4847 22.6097L27.3393 22.5033L27.1938 22.397L27.0484 22.2375L26.903 22.078L26.7576 21.9186L26.6122 21.7591L26.4667 21.5996L26.2486 21.4401L26.0305 21.2806L25.8123 21.1211L25.5942 20.9616L25.3761 20.8022L25.1579 20.6427L24.8671 20.4832L24.5763 20.3237L24.2854 20.1642L23.9946 20.0047L23.7037 19.8452L23.4129 19.6857L23.0493 19.5263L22.6858 19.3668L22.3222 19.2073L21.9587 19.0478L21.5951 18.9415L21.1588 18.8351L20.7226 18.7288L20.2863 18.6225L19.8501 18.5162L19.3411 18.4099L18.8321 18.3567L18.3231 18.3035L17.8141 18.2504L17.2325 18.1972L16.6508 18.144H16.0691H15.4874H14.6876L13.8878 18.1972L13.0879 18.2504L12.2881 18.3567L11.4883 18.463L10.7612 18.6225L10.0341 18.782L9.30699 18.9415L8.57988 19.1541L7.92548 19.3668L7.27108 19.6326L6.61668 19.8984L6.035 20.2174L5.45331 20.5363L4.87163 20.8553L4.36265 21.2274L3.85368 21.5996L3.3447 21.9717L2.90843 22.397L2.47217 22.8223L2.10861 23.2476L1.74506 23.7261L1.45422 24.2045L1.16337 24.683L0.872533 25.2146L0.654398 25.7462L0.436264 26.2779L0.290844 26.8627L0.145425 27.4474L0.0727097 28.0322L0 28.617V29.255V29.8929L0.0727097 30.4777L0.145425 31.0625L0.290844 31.6473L0.436264 32.1789L0.654398 32.7105L0.872533 33.2421L1.16337 33.7737L1.45422 34.2522L1.74506 34.7307L2.10861 35.2091L2.47217 35.6344L2.90843 36.0597L3.3447 36.485L3.78097 36.8572L4.28994 37.2293L4.79891 37.6014L5.30789 37.9204L5.88957 38.2394L6.47126 38.5052L7.05295 38.771L7.70734 39.0368L8.36174 39.2495L9.01614 39.4621L9.74325 39.6216L10.4704 39.7811L11.1975 39.9406L11.9246 40.0469L12.7244 40.1532L13.5242 40.2064L14.324 40.2595H15.1239H15.4147H15.7055H15.9964H16.2872H16.6508H17.0143L17.3779 40.2064L17.7414 40.1532L18.105 40.1001L18.4685 40.0469L18.8321 39.9937L19.1957 39.9406L19.5592 39.8874L19.9228 39.7811L20.2863 39.6748L20.6499 39.5684L21.0134 39.4621L21.377 39.3558L21.7405 39.1963L22.1041 39.0368L22.4676 38.8773L22.8312 38.7178L23.1948 38.5052L23.5583 38.2925L23.9219 38.0799L24.2854 37.8672L24.649 37.6014L25.0125 37.3356L25.3761 37.0698L25.7396 36.7508L26.1032 36.4319L26.394 36.1129L26.6122 35.8471L26.8303 35.5813L27.0484 35.3155L27.2666 35.0496L27.4847 34.7838L27.6301 34.4649L27.7755 34.1459L27.921 33.8269L28.0664 33.5079L28.2118 33.189L28.3572 32.87L28.4299 32.551L28.5026 32.232L28.5753 31.9131L28.6481 31.5941L28.7208 31.2751L28.7935 30.6903L28.8662 30.1056L28.9389 29.5208V28.936V28.4044H15.6328V32.232H15.9964ZM54.2423 39.9937H60.2773L48.0618 18.8351H43.8446L31.3384 39.9937H37.4461L39.991 35.5281H51.6974L54.2423 39.9937ZM41.736 32.232L45.8805 24.6298L49.9523 32.232H41.736ZM63.6947 18.8351V39.9937H78.2368V36.4319H69.2934V18.8351H63.6947ZM108.339 39.9937H115.101L121.791 32.232L128.116 39.9937H134.879L124.99 28.8297L133.861 18.8351H127.171L121.863 25.4273L116.774 18.8351H110.011L118.664 28.8297L108.339 39.9937ZM145.64 39.9937H151.311V30.3182L161.491 18.8351H154.801L148.621 26.2247L142.44 18.8351H135.751L145.712 30.3182V39.9937H145.64Z" fill="#013F85"/>
<path fill-rule="evenodd" clip-rule="evenodd" d="M99.6866 24.5233H112.338L102.159 29.1484L107.03 38.3987L95.1058 32.3382L79.6911 39.3556L88.3437 28.9358L79.5457 24.5233H91.9792L96.7054 18.835L99.6866 24.5233Z" fill="#E32513"/>
<path fill-rule="evenodd" clip-rule="evenodd" d="M5.08984 44.8314H6.03509H6.25322H6.47135H6.61677H6.76219H6.90761H7.05304H7.12575H7.19846L7.41659 44.8846L7.63472 44.9377L7.78015 45.0441L7.92557 45.1504L8.07099 45.2567L8.1437 45.4162L8.21641 45.5757V45.7352V45.8947L8.1437 46.0542V46.1073L8.07099 46.1605L7.99828 46.2136L7.92557 46.2668L7.78015 46.3731L7.63472 46.4794L7.41659 46.5326L7.19846 46.5858H7.12575H7.05304H6.90761H6.76219H6.61677H6.47135H6.25322H6.03509H5.67153V48.2338H5.16255V44.8314H5.08984ZM5.52611 45.2036V46.4263H6.32593H6.54406H6.76219H6.90761L7.05304 46.3731L7.19846 46.32L7.27117 46.2668L7.34388 46.2136L7.41659 46.1605L7.4893 46.1073L7.56201 46.0542V45.9478V45.8415V45.7352V45.6288L7.4893 45.5225L7.41659 45.4694L7.34388 45.4162L7.27117 45.363L7.19846 45.3099L7.12575 45.2567L6.98032 45.2036H6.8349H6.61677H6.39864H5.52611V45.2036ZM13.7424 44.8314L15.9965 48.3933H15.4875L14.6877 47.2237H12.5791L11.7792 48.3933H11.1976L13.5243 44.8314H13.7424ZM13.6697 45.6288L12.7972 46.9579H14.4695L13.6697 45.6288ZM24.4309 48.4465H23.9219V44.8846H26.3941V45.2567H24.4309V48.4465ZM34.1742 46.7984H31.8474V46.4263H34.1742V46.2668L34.1015 46.1073L34.0287 46.001L33.956 45.8947L33.8833 45.7883L33.7379 45.682L33.5925 45.5757L33.4471 45.4694L33.3016 45.363L33.1562 45.3099L33.0108 45.2567L32.8654 45.2036L32.72 45.1504H32.5745H32.3564H32.1383H31.8474L31.6293 45.2036L31.4112 45.2567L31.193 45.3099L30.9749 45.4162L30.7568 45.5225L30.5386 45.6288L30.3932 45.7883L30.0297 45.5757L30.1751 45.4162L30.3932 45.2567L30.6113 45.1504L30.9022 45.0441L31.0476 44.9909L31.193 44.9377L31.4839 44.8846L31.7747 44.8314H32.1383H32.4291H32.72L32.9381 44.8846L33.1562 44.9377L33.3744 44.9909L33.5925 45.0972L33.8106 45.2036L34.0287 45.3099L34.1742 45.4694L34.3196 45.6288L34.465 45.7883L34.6104 45.9478L34.6832 46.1073L34.7559 46.2668V46.4263V46.6389V46.8516V47.0642L34.6832 47.2237L34.6104 47.3832L34.5377 47.5427L34.3923 47.7022L34.2469 47.8617L34.1015 48.0211L33.8833 48.1275L33.6652 48.2338L33.4471 48.3401L33.2289 48.4465L33.0108 48.4996L32.72 48.5528H32.4291H32.1383H31.7747L31.4839 48.4996L31.193 48.4465L30.9022 48.3933L30.6113 48.287L30.3932 48.1806L30.1751 48.0211L29.9569 47.8617L30.3205 47.649L30.4659 47.8085L30.6841 47.9148L30.9022 48.0211L31.1203 48.1275L31.3385 48.1806L31.5566 48.2338L31.7747 48.287H31.9929H32.211H32.4291L32.5745 48.2338L32.72 48.1806L32.8654 48.1275L33.0108 48.0743L33.1562 48.0211L33.3016 47.968L33.4471 47.8617L33.5925 47.7553L33.7379 47.649L33.8106 47.5427L33.8833 47.3832L33.956 47.2237L34.0287 47.0642L34.1742 46.7984ZM42.6813 48.4465H42.1724L40.5727 45.682L38.9004 48.4465H38.3914L40.5 44.8846H40.5727L42.6813 48.4465ZM48.5709 44.8314L50.825 48.3933H50.316L49.5162 47.2237H47.4075L46.6077 48.3933H46.026L48.3528 44.8314H48.5709ZM48.4982 45.6288L47.6257 46.9579H49.298L48.4982 45.6288ZM54.6059 44.8314H55.1149V46.1605L57.0781 44.8314H57.7325L55.4057 46.4263L57.9506 48.3933H57.2962L55.1149 46.7453V48.3933H54.6059V44.8314ZM66.2396 45.5225L65.8761 45.7352L65.7307 45.5757L65.5125 45.4694L65.2944 45.363L65.0763 45.2567L64.8581 45.2036L64.64 45.1504L64.4219 45.0972H64.131H63.8402L63.5493 45.1504L63.2585 45.2036L63.0404 45.3099L62.8222 45.4162L62.6041 45.5225L62.4587 45.682L62.3133 45.8415L62.1678 46.001L62.0951 46.2136L62.0224 46.4263V46.6389V46.7984V46.9579L62.0951 47.1174L62.1678 47.2769L62.2406 47.3832L62.3133 47.4895L62.4587 47.5959L62.6041 47.7022L62.7495 47.8085L62.895 47.9148L63.0404 47.968L63.2585 48.0211L63.4766 48.0743L63.6948 48.1275H63.9129H64.131H64.3492L64.5673 48.0743L64.7854 48.0211L65.0036 47.968L65.2217 47.8617L65.4398 47.7553L65.658 47.649L65.8034 47.4895L66.1669 47.7022L65.9488 47.8617L65.7307 48.0211L65.5125 48.1275L65.2217 48.2338L64.9308 48.3401L64.64 48.3933L64.3492 48.4465H63.9856H63.6948L63.4039 48.3933L63.1131 48.3401L62.8222 48.287L62.6041 48.1806L62.386 48.0743L62.1678 47.968L61.9497 47.8085L61.8043 47.649L61.6589 47.4895L61.5862 47.33L61.5134 47.1706L61.4407 47.0111L61.368 46.8516V46.6921V46.5326V46.32V46.1605L61.4407 46.001L61.5134 45.8415L61.5862 45.682L61.7316 45.5225L61.877 45.363L62.0224 45.2036L62.2406 45.0972L62.4587 44.9909L62.6768 44.8846L62.895 44.8314L63.1131 44.7783L63.3312 44.7251H63.6221H63.9129H64.2765L64.5673 44.7783L64.8581 44.8314L65.149 44.9377L65.2944 44.9909L65.4398 45.0441L65.658 45.1504L65.8761 45.3099L66.2396 45.5225ZM74.0924 48.4465H73.5834V45.682L70.3842 48.4465H70.3115V44.8846H70.8204V47.7022L74.0924 44.8846H74.2378V48.4465H74.0924Z" fill="#013F85"/>
<path fill-rule="evenodd" clip-rule="evenodd" d="M84.999 44.8314L87.3258 48.3933H86.8168L86.017 47.2237H83.9084L83.1085 48.3933H82.5269L84.8536 44.8314H84.999ZM84.9263 45.6288L84.0538 46.9579H85.7261L84.9263 45.6288ZM91.1794 48.4465V44.8846H92.1974H92.4882H92.7064H92.9245H93.1426H93.3608H93.5062L93.6516 44.9377L93.797 44.9909L93.9425 45.0441L94.0879 45.0972L94.2333 45.1504L94.3787 45.2036L94.5241 45.3099L94.6696 45.4162L94.815 45.5225L94.8877 45.6288L94.9604 45.7352L95.0331 45.8415L95.1058 45.9478L95.1785 46.1073L95.2512 46.2668V46.4263V46.5858V46.7453V46.9048V47.0111V47.1174V47.2237L95.1785 47.3301L95.1058 47.4364L95.0331 47.5427L94.9604 47.649L94.8877 47.7553L94.815 47.8617L94.7423 47.968L94.6696 48.0212L94.5968 48.0743L94.4514 48.1275L94.306 48.1807L94.1606 48.2338L94.0152 48.287L93.8697 48.3401L93.7243 48.3933H93.5789H93.4335H93.2153H92.9972H92.7791H91.1794V48.4465ZM91.6884 48.0743H92.2701H92.4882H92.7064H92.9245H93.1426H93.288H93.4335H93.5789H93.6516L93.797 48.0212L93.9425 47.968L94.0879 47.9148L94.2333 47.8617L94.306 47.8085L94.3787 47.7553L94.4514 47.7022L94.5241 47.5959L94.5968 47.4895L94.6696 47.3832L94.7423 47.2769L94.815 47.1706V47.0642V46.9579V46.8516V46.7453V46.6389V46.5326V46.4263L94.7423 46.32L94.6696 46.2136L94.5968 46.1073L94.5241 46.001L94.4514 45.8947L94.3787 45.7883L94.306 45.682L94.2333 45.6288L94.0879 45.5757L93.9425 45.5225L93.797 45.4694L93.6516 45.4162L93.5062 45.363H93.3608H93.2153H93.0699H92.9245H92.7064H92.4882H92.2701H92.052H91.6884V48.0743V48.0743ZM99.0322 44.8314H99.5412L101.141 47.5959L102.813 44.8314H103.322L101.214 48.3933H101.141L99.0322 44.8314ZM107.321 44.8314H110.157V45.2036H107.83V46.32H110.157V46.6921H107.83V48.0743H110.157V48.4465H107.394V44.8314H107.321ZM114.083 44.8314H115.029H115.247H115.392H115.538H115.683H115.828H115.974H116.047H116.119L116.337 44.8846L116.556 44.9377L116.701 45.0441L116.846 45.1504L116.992 45.2567L117.064 45.4162L117.137 45.5757V45.7352V45.8947V46.001L117.064 46.1073L116.992 46.2136L116.919 46.32L116.774 46.4263L116.628 46.4795L116.483 46.5326L116.265 46.5858L116.047 46.6389H115.756H115.465L117.21 48.287H116.628L114.883 46.6389H114.592V48.287H114.083V44.8314ZM114.592 45.2036V46.4263H115.465H115.683H115.901H116.047L116.192 46.3731L116.265 46.32L116.337 46.2668L116.41 46.2136L116.483 46.1605L116.556 46.1073L116.628 46.001V45.8947V45.7883V45.682V45.5757L116.556 45.4694L116.483 45.4162L116.41 45.363L116.337 45.3099L116.265 45.2567L116.192 45.2036L116.047 45.1504H115.901H115.683H115.465H114.592V45.2036ZM120.845 45.2036V44.8314H123.536V45.2036H122.445V48.4465H121.936V45.2036H120.845ZM127.317 44.8314H127.826V48.3933H127.317V44.8314ZM131.534 47.7553L131.97 47.5959L132.116 47.7553L132.261 47.8617L132.406 47.968L132.552 48.0743L132.697 48.1275L132.843 48.1807L132.988 48.2338H133.134H133.279H133.424L133.57 48.1807L133.643 48.1275L133.715 48.0743L133.788 48.0212L133.861 47.968L133.933 47.9148L134.006 47.8617L134.079 47.8085V47.7553V47.7022V47.5959V47.4895L134.006 47.3832L133.933 47.2769L133.861 47.2237L133.788 47.1706L133.715 47.1174L133.643 47.0642L133.57 47.0111L133.424 46.9579L133.279 46.8516L133.134 46.7453L132.988 46.6389L132.843 46.5858L132.697 46.5326L132.625 46.4795L132.261 46.2668L132.188 46.2136L132.116 46.1605L132.043 46.1073L131.897 46.001L131.825 45.8947L131.752 45.7352V45.5757V45.4694V45.363L131.825 45.2567L131.897 45.1504L131.97 45.0441L132.043 44.9377L132.188 44.8846L132.334 44.8314L132.479 44.7783L132.625 44.7251H132.77H132.915H133.061H133.206L133.352 44.7783L133.497 44.8314L133.643 44.8846L133.788 44.9909L133.933 45.0972L134.079 45.2567L133.715 45.4694L133.57 45.363L133.424 45.2567L133.279 45.2036L133.206 45.1504L133.134 45.0972L133.061 45.0441H132.988H132.843H132.697H132.552L132.406 45.0972L132.334 45.1504L132.261 45.2036L132.188 45.2567V45.363V45.4694V45.5757L132.261 45.682L132.334 45.7352L132.406 45.7883L132.479 45.8415L132.552 45.8947L132.625 45.9478L132.697 46.001L132.77 46.0542L132.843 46.1073L132.915 46.1605L133.061 46.2136L133.206 46.2668L133.352 46.3731L133.497 46.4795L133.643 46.5858L133.788 46.6389L133.861 46.6921L133.933 46.7453L134.006 46.7984L134.079 46.8516L134.152 47.0111L134.224 47.1706L134.297 47.3301V47.4895V47.5959V47.7022V47.8085L134.224 47.9148L134.152 48.0212L134.079 48.1275L134.006 48.1807L133.933 48.2338L133.861 48.287L133.788 48.3401L133.643 48.3933L133.497 48.4465L133.352 48.4996H133.206H133.061H132.915H132.697L132.479 48.4465L132.261 48.3933L132.043 48.3401L131.97 48.287L131.897 48.2338L131.825 48.1807L131.752 48.1275L131.679 48.0743L131.607 47.968L131.534 47.8617V47.7553ZM138.441 44.8314H138.95V48.3933H138.441V44.8314ZM143.168 48.4465V44.8846H143.313L146.585 47.649V44.8846H147.094V48.4465H146.949L143.749 45.7352V48.4465H143.168ZM156.11 45.4694L155.747 45.7352L155.529 45.5757L155.31 45.4694L155.092 45.363L154.874 45.2567L154.656 45.2036L154.438 45.1504L154.22 45.0972H154.002H153.711L153.42 45.1504L153.129 45.2036L152.838 45.3099L152.62 45.4162L152.402 45.5225L152.184 45.682L152.111 45.7352L152.038 45.8415L151.893 46.001L151.82 46.1605L151.748 46.3731V46.5858V46.7984L151.82 47.0111L151.893 47.2237L152.038 47.3832L152.184 47.5427L152.402 47.7022L152.62 47.8085L152.838 47.9148L153.129 48.0212L153.42 48.0743L153.711 48.1275H154.002H154.22H154.365H154.511L154.656 48.0743L154.801 48.0212L154.947 47.968L155.092 47.9148L155.238 47.8617L155.383 47.7553L155.529 47.649L155.601 47.5427L155.674 47.4364L155.747 47.3301L155.819 47.2237L155.892 47.1174V47.0111H154.292V46.6389H156.401V46.8516V47.0642L156.328 47.2237L156.256 47.3832L156.183 47.5427L156.037 47.7022L155.892 47.8617L155.747 47.968L155.601 48.0743L155.383 48.1807L155.165 48.287L154.947 48.3401L154.729 48.3933L154.511 48.4465H154.22H153.929H153.565L153.274 48.3933L152.984 48.3401L152.693 48.287L152.402 48.1807L152.184 48.0743L151.966 47.9148L151.748 47.7553L151.602 47.649L151.457 47.4895L151.384 47.3301L151.311 47.1706L151.239 47.0111L151.166 46.8516V46.6921V46.5326V46.4263V46.32V46.2136V46.1073L151.239 46.001L151.311 45.8947L151.384 45.7883L151.457 45.682L151.529 45.5757L151.602 45.4694L151.675 45.363L151.82 45.2567L151.966 45.1504L152.111 45.0972L152.257 45.0441L152.402 44.9909L152.547 44.9377L152.693 44.8846L152.838 44.8314L152.984 44.7783H153.129H153.274H153.493H153.711H154.002L154.292 44.8314L154.583 44.8846L154.874 44.9377L155.165 45.0441L155.456 45.1504L155.747 45.3099L156.11 45.4694Z" fill="#E32513"/>
</svg>
